<mxfile host="app.diagrams.net" modified="2024-06-06T02:46:25.555Z" agent="Mozilla/5.0 (Windows NT 10.0; Win64; x64; rv:126.0) Gecko/20100101 Firefox/126.0" version="24.4.14" etag="CjlViN84TJa3mJaPyC7G" type="github">
  <diagram name="Page-1" id="bXFa9twhduHelq8EIaQv">
    <mxGraphModel>
      <root>
        <mxCell id="0" />
        <mxCell id="1" parent="0" />
      </root>
    </mxGraphModel>
  </diagram>
</mxfile>
